<?xml version="1.0" encoding="UTF-8" standalone="no"?>
<svg
   height="34.569752"
   viewBox="0 -960 960.00008 691.39503"
   width="48.000004"
   version="1.1"
   id="svg1"
   sodipodi:docname="communities.svg"
   inkscape:version="1.3 (0e150ed, 2023-07-21)"
   xmlns:inkscape="http://www.inkscape.org/namespaces/inkscape"
   xmlns:sodipodi="http://sodipodi.sourceforge.net/DTD/sodipodi-0.dtd"
   xmlns="http://www.w3.org/2000/svg"
   xmlns:svg="http://www.w3.org/2000/svg">
  <defs
     id="defs1" />
  <sodipodi:namedview
     id="namedview1"
     pagecolor="#505050"
     bordercolor="#eeeeee"
     borderopacity="1"
     inkscape:showpageshadow="0"
     inkscape:pageopacity="0"
     inkscape:pagecheckerboard="0"
     inkscape:deskcolor="#505050"
     showborder="false"
     inkscape:zoom="18.020833"
     inkscape:cx="24"
     inkscape:cy="23.972254"
     inkscape:window-width="1392"
     inkscape:window-height="1027"
     inkscape:window-x="0"
     inkscape:window-y="25"
     inkscape:window-maximized="0"
     inkscape:current-layer="svg1" />
  <path
     d="m 0,-268.605 v -99.37057 q 0,-38.85225 18.532663,-67.39716 18.53157,-28.54382 53.456957,-44.05565 73.11533,-32.2226 135.04133,-48.61641 61.926,-16.39382 137.2381,-16.39382 75.73179,0 137.11133,16.39382 61.37954,16.39381 134.96373,48.63936 33.56798,15.18942 52.88099,43.82723 19.31191,28.63781 19.31191,67.60263 v 99.37057 z m 763.27642,0 v -100.29518 q 0,-57.25158 -26.62793,-101.17061 -26.62683,-43.91904 -72.65739,-73.10659 64.73372,9.41552 122.57329,24.92625 57.83957,15.51183 98.39787,36.2522 34.25433,18.85507 54.64605,48.47323 20.39173,29.61926 20.39173,64.62552 V -268.605 Z M 344.26905,-639.35662 q -70.27482,0 -115.2988,-45.02398 -45.02289,-45.02398 -45.02289,-114.75125 0,-70.14805 45.02289,-115.50755 Q 273.99423,-960 343.72259,-960 q 70.14805,0 115.50756,45.2371 45.36059,45.2371 45.36059,115.08459 0,70.27373 -45.23709,115.29771 -45.2371,45.02398 -115.0846,45.02398 z m 391.4297,-160.32169 q 0,70.27373 -45.22617,115.29771 -45.22508,45.02398 -115.05727,45.02398 -10.715,0 -23.53496,-1.55523 -12.81997,-1.55522 -22.40379,-5.33782 24.51531,-29.27062 36.63799,-68.00702 12.12268,-38.73531 12.12268,-85.15167 0,-46.41745 -12.61122,-83.28605 -12.61012,-36.86751 -36.14945,-70.83222 9.98274,-2.41754 22.95025,-4.44491 Q 565.39432,-960 575.37706,-960 q 69.84749,0 115.08459,45.2371 45.2371,45.2371 45.2371,115.08459 z"
     id="path1"
     style="fill:#ffffff;stroke-width:1" />
</svg>
