<?xml version="1.0" encoding="UTF-8" standalone="no"?>
<svg
   height="48"
   viewBox="0 -960 895.20012 960"
   width="44.760006"
   version="1.1"
   id="svg1"
   sodipodi:docname="notification.svg"
   inkscape:version="1.3 (0e150ed, 2023-07-21)"
   xmlns:inkscape="http://www.inkscape.org/namespaces/inkscape"
   xmlns:sodipodi="http://sodipodi.sourceforge.net/DTD/sodipodi-0.dtd"
   xmlns="http://www.w3.org/2000/svg"
   xmlns:svg="http://www.w3.org/2000/svg">
  <defs
     id="defs1" />
  <sodipodi:namedview
     id="namedview1"
     pagecolor="#505050"
     bordercolor="#eeeeee"
     borderopacity="1"
     inkscape:showpageshadow="0"
     inkscape:pageopacity="0"
     inkscape:pagecheckerboard="0"
     inkscape:deskcolor="#505050"
     showborder="false"
     inkscape:zoom="18.020833"
     inkscape:cx="24"
     inkscape:cy="23.972254"
     inkscape:window-width="1392"
     inkscape:window-height="1027"
     inkscape:window-x="0"
     inkscape:window-y="25"
     inkscape:window-maximized="0"
     inkscape:current-layer="svg1" />
  <path
     d="m 70.483488,-140.96576 v -69.56482 H 156.6403 v -377.62297 q 0,-101.56681 61.13359,-182.17111 61.13478,-80.6055 161.31465,-102.37347 v -19.38493 q 0,-26.93204 19.93779,-47.42389 Q 418.96293,-960 447.14489,-960 q 28.18077,0 47.97796,20.49305 19.79719,20.49185 19.79719,47.42389 v 19.6137 q 100.17987,21.5392 161.91042,101.90878 61.72935,80.36838 61.72935,182.40703 v 377.62297 h 86.15681 v 69.56482 z M 446.96259,2.0957e-5 q -39.18689,0 -66.22498,-27.067879957 -27.03809,-27.067881 -27.03809,-66.236892 h 186.60954 q 0,39.228588 -27.07979,66.26668 Q 486.14828,2.0957e-5 446.96259,2.0957e-5 Z M 0,-590.5366 q 0,-107.97006 48.0423,-201.21645 48.0423,-93.24639 129.49378,-155.04842 l 42.34442,56.09224 q -69.48737,52.4295 -109.90152,130.38742 -40.412967,77.95912 -40.412967,169.78521 z m 825.63409,0 q 0,-91.56395 -41.00872,-169.62197 -41.00992,-78.05682 -109.30577,-131.00939 l 42.34443,-55.63351 q 80.25995,61.82944 128.89801,155.09131 48.63807,93.26069 48.63807,201.17356 z"
     id="path1"
     style="stroke-width:1" />
</svg>
