<?xml version="1.0" encoding="UTF-8" standalone="no"?>
<svg
   height="48"
   viewBox="0 -960 960 960"
   width="48"
   version="1.1"
   id="svg1"
   sodipodi:docname="search.svg"
   inkscape:version="1.3 (0e150ed, 2023-07-21)"
   xmlns:inkscape="http://www.inkscape.org/namespaces/inkscape"
   xmlns:sodipodi="http://sodipodi.sourceforge.net/DTD/sodipodi-0.dtd"
   xmlns="http://www.w3.org/2000/svg"
   xmlns:svg="http://www.w3.org/2000/svg">
  <defs
     id="defs1" />
  <sodipodi:namedview
     id="namedview1"
     pagecolor="#505050"
     bordercolor="#eeeeee"
     borderopacity="1"
     inkscape:showpageshadow="0"
     inkscape:pageopacity="0"
     inkscape:pagecheckerboard="0"
     inkscape:deskcolor="#505050"
     inkscape:zoom="18.020833"
     inkscape:cx="24"
     inkscape:cy="23.972254"
     inkscape:window-width="1392"
     inkscape:window-height="1027"
     inkscape:window-x="0"
     inkscape:window-y="25"
     inkscape:window-maximized="0"
     inkscape:current-layer="svg1" />
  <path
     d="M 903.27497,9.442e-6 553.30998,-350.45533 q -41.43625,35.53004 -97.53263,54.08331 -56.09638,18.55326 -112.66423,18.55326 -145.48764,0 -244.300378,-98.88528 Q 0,-475.58932 0,-618.82462 q 0,-143.23529 98.746923,-242.20532 98.746927,-98.97003 241.405697,-98.97003 142.66011,0 242.12567,98.91084 99.46421,98.9095 99.46421,242.19456 0,57.8779 -18.64954,112.09573 -18.65088,54.21917 -55.22864,99.02114 L 959.99998,-57.321011 Z M 341.02707,-356.351 q 110.75683,0 186.52495,-75.87429 75.76812,-75.87428 75.76812,-186.68407 0,-110.80845 -75.64992,-186.68273 -75.64991,-75.87429 -186.52495,-75.87429 -111.56411,0 -187.14284,75.87429 -75.578723,75.87428 -75.578723,186.68273 0,110.80979 75.578723,186.68407 75.57873,75.87429 187.02464,75.87429 z"
     id="path1"
     style="stroke-width:1" />
</svg>
