<?xml version="1.0" encoding="UTF-8" standalone="no"?>
<svg
   height="48"
   viewBox="0 -960 960 960"
   width="48"
   version="1.1"
   id="svg1"
   sodipodi:docname="settings.svg"
   inkscape:version="1.3 (0e150ed, 2023-07-21)"
   xmlns:inkscape="http://www.inkscape.org/namespaces/inkscape"
   xmlns:sodipodi="http://sodipodi.sourceforge.net/DTD/sodipodi-0.dtd"
   xmlns="http://www.w3.org/2000/svg"
   xmlns:svg="http://www.w3.org/2000/svg">
  <defs
     id="defs1" />
  <sodipodi:namedview
     id="namedview1"
     pagecolor="#505050"
     bordercolor="#eeeeee"
     borderopacity="1"
     inkscape:showpageshadow="0"
     inkscape:pageopacity="0"
     inkscape:pagecheckerboard="0"
     inkscape:deskcolor="#505050"
     showborder="false"
     inkscape:zoom="18.020833"
     inkscape:cx="24"
     inkscape:cy="23.972254"
     inkscape:window-width="1392"
     inkscape:window-height="1027"
     inkscape:window-x="0"
     inkscape:window-y="25"
     inkscape:window-maximized="0"
     inkscape:current-layer="svg1" />
  <path
     d="M 369.29603,6.9086e-6 346.03902,-150.39351 q -21.3808,-7.26357 -48.43657,-22.20959 -27.05454,-14.94601 -45.52898,-30.59175 L 110.84416,-140.33709 0,-338.03463 124.44336,-430.50477 q -1.21912,-10.33728 -2.29803,-24.81721 -1.07892,-14.48115 -1.07892,-26.02781 0,-9.8712 1.07892,-23.74705 1.07891,-13.87584 2.29803,-26.81953 L 0,-623.642 l 110.84416,-195.08992 138.32173,61.92681 q 19.88129,-15.64573 46.60789,-30.96461 26.72783,-15.31888 49.7971,-23.04732 l 23.72515,-149.18292 h 221.40791 l 22.0379,149.64779 q 24.47612,8.6606 50.17136,23.28096 25.69524,14.62037 44.82555,30.2661 l 141.8852,-61.92681 110.37602,195.08992 -128.75658,92.37814 q 2.15661,13.22333 3.61101,27.2384 1.45319,14.01507 1.45319,24.63078 0,10.15085 -1.68847,23.79305 -1.68726,13.6422 -2.15661,26.5871 l 125.84899,90.9799 -110.84416,197.69754 -142.16681,-63.32263 q -20.34943,16.57548 -44.91943,31.42949 -24.56999,14.8528 -46.42015,21.37185 L 590.70394,6.9086001e-6 Z M 476.76446,-327.2337 q 64.70562,0 109.57872,-44.55839 44.87187,-44.55961 44.87187,-108.81319 0,-64.25357 -44.87187,-108.81318 -44.8731,-44.5584 -109.57872,-44.5584 -64.23748,0 -109.34343,44.5584 -45.10716,44.55961 -45.10716,108.81318 0,64.25358 45.10716,108.81319 45.10595,44.55839 109.34343,44.55839 z"
     id="path1"
     style="fill:#ffffff;stroke-width:1" />
</svg>
