<?xml version="1.0" encoding="UTF-8" standalone="no"?>
<svg
   height="48.000004"
   viewBox="0 -960 823.97842 960.00008"
   width="41.198921"
   version="1.1"
   id="svg1"
   sodipodi:docname="support.svg"
   inkscape:version="1.3 (0e150ed, 2023-07-21)"
   xmlns:inkscape="http://www.inkscape.org/namespaces/inkscape"
   xmlns:sodipodi="http://sodipodi.sourceforge.net/DTD/sodipodi-0.dtd"
   xmlns="http://www.w3.org/2000/svg"
   xmlns:svg="http://www.w3.org/2000/svg">
  <defs
     id="defs1" />
  <sodipodi:namedview
     id="namedview1"
     pagecolor="#505050"
     bordercolor="#eeeeee"
     borderopacity="1"
     inkscape:showpageshadow="0"
     inkscape:pageopacity="0"
     inkscape:pagecheckerboard="0"
     inkscape:deskcolor="#505050"
     showborder="false"
     inkscape:zoom="18.020833"
     inkscape:cx="24"
     inkscape:cy="23.972254"
     inkscape:window-width="1392"
     inkscape:window-height="1027"
     inkscape:window-x="0"
     inkscape:window-y="25"
     inkscape:window-maximized="0"
     inkscape:current-layer="svg1" />
  <path
     d="M 411.98921,4.02442e-5 275.96526,-136.02159 H 81.811333 q -33.015935,0 -57.413634,-24.12574 Q 0,-184.27191 0,-217.83292 V -878.18866 Q 0,-911.2046 24.397699,-935.6023 48.795398,-960 81.811333,-960 H 742.16708 q 33.56101,0 57.68559,24.3977 24.12574,24.3977 24.12574,57.41364 v 660.35574 q 0,33.56101 -24.12574,57.68559 -24.12458,24.12574 -57.68559,24.12574 H 548.01315 Z M 418.04292,-280.23673 q 17.87529,0 30.25814,-12.38286 12.3817,-12.38285 12.3817,-30.25814 0,-16.71802 -12.3817,-29.67951 -12.38285,-12.9615 -30.25814,-12.9615 -17.87529,0 -30.25815,12.9615 -12.38285,12.96149 -12.38285,29.67951 0,17.87529 12.38285,30.25814 12.38286,12.38286 30.25815,12.38286 z m -37.12195,-168.69501 h 64.7172 q 0.44555,-17.81743 2.18147,-31.78691 1.73591,-13.96948 9.83685,-26.96685 6.94365,-12.99737 18.29422,-26.79558 11.34941,-13.7982 27.62766,-30.20259 30.63657,-28.64028 45.81425,-57.88349 15.17768,-29.24322 15.17768,-63.6988 0,-63.04147 -43.35273,-97.08275 -43.35388,-34.04013 -104.57959,-34.04013 -60.10893,0 -99.14386,30.84604 -39.03608,30.84489 -57.37428,73.75322 l 59.99899,25.19275 q 12.28564,-23.23464 33.82834,-44.86645 21.5427,-21.63296 65.0748,-21.63296 42.64101,0 62.3147,22.79024 19.6737,22.78909 19.6737,51.7534 0,25.1615 -13.88732,44.87917 -13.88731,19.71768 -35.78645,40.51972 -22.96731,22.64095 -37.43326,38.02925 -14.46595,15.38946 -21.40961,29.33233 -8.10094,15.1013 -9.83685,32.99395 -1.73591,17.89264 -1.73591,44.86644 z"
     id="path1"
     style="fill:#ffffff;stroke-width:1" />
</svg>
