<?xml version="1.0" encoding="UTF-8" standalone="no"?>
<svg
   height="32.727276"
   viewBox="0 -960 960.00008 654.54552"
   width="48.000004"
   version="1.1"
   id="svg1"
   sodipodi:docname="visibility.svg"
   inkscape:version="1.3 (0e150ed, 2023-07-21)"
   xmlns:inkscape="http://www.inkscape.org/namespaces/inkscape"
   xmlns:sodipodi="http://sodipodi.sourceforge.net/DTD/sodipodi-0.dtd"
   xmlns="http://www.w3.org/2000/svg"
   xmlns:svg="http://www.w3.org/2000/svg">
  <defs
     id="defs1" />
  <sodipodi:namedview
     id="namedview1"
     pagecolor="#505050"
     bordercolor="#eeeeee"
     borderopacity="1"
     inkscape:showpageshadow="0"
     inkscape:pageopacity="0"
     inkscape:pagecheckerboard="0"
     inkscape:deskcolor="#505050"
     showborder="false"
     inkscape:zoom="18.020833"
     inkscape:cx="24"
     inkscape:cy="-20.143353"
     inkscape:window-width="1392"
     inkscape:window-height="1027"
     inkscape:window-x="0"
     inkscape:window-y="25"
     inkscape:window-maximized="0"
     inkscape:current-layer="svg1" />
  <path
     d="m 480.12875,-447.27271 q 77.32582,0 131.32583,-54.12873 54,-54.12765 54,-131.45455 0,-77.32582 -54.12874,-131.32582 -54.12763,-54.00001 -131.45455,-54.00001 -77.32581,0 -131.32582,54.12872 -54.00001,54.12765 -54.00001,131.45456 0,77.32583 54.12874,131.32583 54.12764,54 131.45455,54 z m -0.38509,-63.27273 q -51.01637,0 -86.47091,-35.71092 -35.45455,-35.712 -35.45455,-86.72727 0,-51.01637 35.7109,-86.4709 35.71201,-35.45457 86.72729,-35.45457 51.01635,0 86.47092,35.71092 35.45453,35.712 35.45453,86.72728 0,51.01636 -35.71091,86.47092 -35.712,35.45454 -86.72727,35.45454 z m 0.25636,205.09092 q -159.27274,0 -288.00001,-90.54546 Q 63.272731,-486.54544 0,-632.72726 63.272731,-778.9091 192.00001,-869.45454 320.72728,-960 480.00002,-960 q 159.27273,0 288.00001,90.54546 128.72728,90.54544 192.00001,236.72728 -63.27273,146.18182 -192.00001,236.72728 -128.72728,90.54546 -288.00001,90.54546 z m 0,-327.27274 z m -0.18436,261.81818 q 132.18436,0 242.91164,-71.45454 110.72728,-71.45455 168.54547,-190.36364 -57.81819,-118.9091 -168.3611,-190.36365 -110.54401,-71.45455 -242.72728,-71.45455 -132.18437,0 -242.91166,71.45455 -110.72727,71.45455 -169.636363,190.36365 58.909093,118.90909 169.452013,190.36364 110.544,71.45454 242.72728,71.45454 z"
     id="path1"
     style="stroke-width:1" />
</svg>
